<mxfile host="app.diagrams.net" modified="2020-09-30T14:33:35.447Z" agent="5.0 (Windows NT 10.0; Win64; x64) AppleWebKit/537.36 (KHTML, like Gecko) Chrome/85.0.4183.121 Safari/537.36" etag="wSH5eyUCr3zS--cVmSa1" version="13.7.6" type="github">
  <diagram id="hcVJVVnhUcyjNLwMXso7" name="Page-1">
    <mxGraphModel dx="1038" dy="580" grid="1" gridSize="10" guides="1" tooltips="1" connect="1" arrows="1" fold="1" page="1" pageScale="1" pageWidth="827" pageHeight="1169" math="0" shadow="0">
      <root>
        <mxCell id="0" />
        <mxCell id="1" parent="0" />
        <mxCell id="_g3L80TSgveoXeNEcAz0-9" value="" style="edgeStyle=orthogonalEdgeStyle;rounded=0;orthogonalLoop=1;jettySize=auto;html=1;" edge="1" parent="1" source="_g3L80TSgveoXeNEcAz0-4" target="_g3L80TSgveoXeNEcAz0-7">
          <mxGeometry relative="1" as="geometry" />
        </mxCell>
        <mxCell id="_g3L80TSgveoXeNEcAz0-4" value="Start" style="ellipse;whiteSpace=wrap;html=1;" vertex="1" parent="1">
          <mxGeometry x="110" y="30" width="100" height="60" as="geometry" />
        </mxCell>
        <mxCell id="_g3L80TSgveoXeNEcAz0-6" value="input" style="shape=parallelogram;perimeter=parallelogramPerimeter;whiteSpace=wrap;html=1;fixedSize=1;" vertex="1" parent="1">
          <mxGeometry x="110" y="110" width="100" height="40" as="geometry" />
        </mxCell>
        <mxCell id="_g3L80TSgveoXeNEcAz0-10" value="" style="edgeStyle=orthogonalEdgeStyle;rounded=0;orthogonalLoop=1;jettySize=auto;html=1;" edge="1" parent="1" source="_g3L80TSgveoXeNEcAz0-7" target="_g3L80TSgveoXeNEcAz0-8">
          <mxGeometry relative="1" as="geometry" />
        </mxCell>
        <mxCell id="_g3L80TSgveoXeNEcAz0-7" value="s=0&lt;br&gt;i=0" style="rounded=0;whiteSpace=wrap;html=1;" vertex="1" parent="1">
          <mxGeometry x="115" y="180" width="90" height="40" as="geometry" />
        </mxCell>
        <mxCell id="_g3L80TSgveoXeNEcAz0-14" value="" style="edgeStyle=orthogonalEdgeStyle;rounded=0;orthogonalLoop=1;jettySize=auto;html=1;" edge="1" parent="1" source="_g3L80TSgveoXeNEcAz0-8" target="_g3L80TSgveoXeNEcAz0-12">
          <mxGeometry relative="1" as="geometry" />
        </mxCell>
        <mxCell id="_g3L80TSgveoXeNEcAz0-20" value="" style="edgeStyle=orthogonalEdgeStyle;rounded=0;orthogonalLoop=1;jettySize=auto;html=1;" edge="1" parent="1" source="_g3L80TSgveoXeNEcAz0-8" target="_g3L80TSgveoXeNEcAz0-18">
          <mxGeometry relative="1" as="geometry" />
        </mxCell>
        <mxCell id="_g3L80TSgveoXeNEcAz0-8" value="n&amp;gt;0" style="rhombus;whiteSpace=wrap;html=1;" vertex="1" parent="1">
          <mxGeometry x="120" y="310" width="80" height="80" as="geometry" />
        </mxCell>
        <mxCell id="_g3L80TSgveoXeNEcAz0-16" style="edgeStyle=orthogonalEdgeStyle;rounded=0;orthogonalLoop=1;jettySize=auto;html=1;" edge="1" parent="1" source="_g3L80TSgveoXeNEcAz0-11">
          <mxGeometry relative="1" as="geometry">
            <mxPoint x="160" y="265" as="targetPoint" />
          </mxGeometry>
        </mxCell>
        <mxCell id="_g3L80TSgveoXeNEcAz0-11" value="n/=10" style="rounded=0;whiteSpace=wrap;html=1;" vertex="1" parent="1">
          <mxGeometry x="260" y="240" width="110" height="50" as="geometry" />
        </mxCell>
        <mxCell id="_g3L80TSgveoXeNEcAz0-15" value="" style="edgeStyle=orthogonalEdgeStyle;rounded=0;orthogonalLoop=1;jettySize=auto;html=1;" edge="1" parent="1" source="_g3L80TSgveoXeNEcAz0-12" target="_g3L80TSgveoXeNEcAz0-13">
          <mxGeometry relative="1" as="geometry" />
        </mxCell>
        <mxCell id="_g3L80TSgveoXeNEcAz0-12" value="i=n%10" style="rounded=0;whiteSpace=wrap;html=1;" vertex="1" parent="1">
          <mxGeometry x="260" y="325" width="110" height="50" as="geometry" />
        </mxCell>
        <mxCell id="_g3L80TSgveoXeNEcAz0-17" style="edgeStyle=orthogonalEdgeStyle;rounded=0;orthogonalLoop=1;jettySize=auto;html=1;entryX=1;entryY=0.5;entryDx=0;entryDy=0;" edge="1" parent="1" source="_g3L80TSgveoXeNEcAz0-13" target="_g3L80TSgveoXeNEcAz0-11">
          <mxGeometry relative="1" as="geometry">
            <Array as="points">
              <mxPoint x="505" y="265" />
            </Array>
          </mxGeometry>
        </mxCell>
        <mxCell id="_g3L80TSgveoXeNEcAz0-13" value="s+=i" style="rounded=0;whiteSpace=wrap;html=1;" vertex="1" parent="1">
          <mxGeometry x="450" y="325" width="110" height="50" as="geometry" />
        </mxCell>
        <mxCell id="_g3L80TSgveoXeNEcAz0-21" value="" style="edgeStyle=orthogonalEdgeStyle;rounded=0;orthogonalLoop=1;jettySize=auto;html=1;" edge="1" parent="1" source="_g3L80TSgveoXeNEcAz0-18" target="_g3L80TSgveoXeNEcAz0-19">
          <mxGeometry relative="1" as="geometry" />
        </mxCell>
        <mxCell id="_g3L80TSgveoXeNEcAz0-18" value="print s" style="shape=parallelogram;perimeter=parallelogramPerimeter;whiteSpace=wrap;html=1;fixedSize=1;" vertex="1" parent="1">
          <mxGeometry x="105" y="420" width="110" height="40" as="geometry" />
        </mxCell>
        <mxCell id="_g3L80TSgveoXeNEcAz0-19" value="HALT" style="ellipse;whiteSpace=wrap;html=1;" vertex="1" parent="1">
          <mxGeometry x="100" y="490" width="120" height="60" as="geometry" />
        </mxCell>
      </root>
    </mxGraphModel>
  </diagram>
</mxfile>
